<?xml version="1.0" encoding="utf-8"?>
<svg version="1.1" id="flag" xmlns="http://www.w3.org/2000/svg" xmlns:xlink="http://www.w3.org/1999/xlink" x="0px" y="0px"
	 viewBox="0 0 26.8 32" style="enable-background:new 0 0 26.8 32;" xml:space="preserve" width="27" height="32">
<style type="text/css">
	#flag .fill-orange{fill:#F7511E;}
</style>
<g>
	<path class="fill-orange" d="M24,0.9c0,0.5,0,1,0,1.5c0,4.9,0,9.8,0,14.7c0,0.3-0.1,0.4-0.3,0.5c-1.9,1.1-3.9,1.5-6,1.5
		c-1.8,0-3.5-0.4-5.2-1c-4.3-1.4-8.4-1-12.4,1.1c0,0-0.1,0-0.1,0c0-0.1,0-0.2,0-0.3c0-5.3,0-10.6,0-16c0-0.2,0.1-0.3,0.3-0.4
		c1.7-0.9,3.5-1.5,5.4-1.7c2.5-0.3,4.9,0,7.3,0.8c1.8,0.6,3.7,0.9,5.6,0.8C20.4,2.4,22.2,2,23.8,1C23.8,1,23.9,0.9,24,0.9
		C23.9,0.9,24,0.9,24,0.9"/>
	<path class="fill-orange" d="M26.8,16c0,5,0,10,0,15c0,0.6-0.3,1-0.8,1c-0.5,0.1-0.9-0.2-1-0.7c0-0.1,0-0.2,0-0.3c0-10,0-19.9,0-29.9
		c0-0.6,0.4-1,1-1c0.6,0,0.9,0.4,0.9,1C26.8,6,26.8,11,26.8,16"/>
</g>
</svg>
